<?xml version="1.0" encoding="utf-8"?>
<!-- Created with: Axialis IconVectors - www.axialis.com -->
<svg xmlns="http://www.w3.org/2000/svg" version="1.1" xmlns:xlink="http://www.w3.org/1999/xlink" id="Icon 1" viewBox="0 0 32 32">
  <g/>
  <g>
    <path fill="#FFFFFF" stroke="#00A651" stroke-width="1" d="M9.51,15.41 L7.85,10.61 L6.09,15.41 Z M7.08,9 L8.75,9 L12.7,19.85 L11.08,19.85 L9.98,16.6 L5.67,16.6 L4.49,19.85 L2.98,19.85 Z"/>
    <path fill="#FFFFFF" stroke="#00A651" stroke-width="1" d="M17.21,18.96 C17.84,18.96 18.36,18.7 18.77,18.18 C19.18,17.65 19.39,16.87 19.39,15.84 C19.39,15.21 19.3,14.67 19.11,14.22 C18.77,13.35 18.14,12.91 17.21,12.91 C16.29,12.91 15.66,13.37 15.32,14.29 C15.13,14.78 15.04,15.41 15.04,16.17 C15.04,16.78 15.13,17.3 15.32,17.72 C15.67,18.55 16.3,18.96 17.21,18.96 Z M13.76,11.98 L15.06,11.98 L15.06,13.03 C15.33,12.67 15.62,12.39 15.93,12.19 C16.38,11.9 16.92,11.75 17.52,11.75 C18.42,11.75 19.18,12.09 19.82,12.78 C20.44,13.46 20.76,14.44 20.76,15.72 C20.76,17.44 20.3,18.67 19.39,19.41 C18.82,19.88 18.15,20.11 17.4,20.11 C16.79,20.11 16.29,19.98 15.89,19.72 C15.65,19.57 15.39,19.32 15.1,18.96 L15.1,23 L13.76,23 Z"/>
    <path fill="#FFFFFF" stroke="#00A651" stroke-width="1" d="M25.66,18.96 C26.28,18.96 26.8,18.7 27.21,18.18 C27.63,17.65 27.84,16.87 27.84,15.84 C27.84,15.21 27.74,14.67 27.56,14.22 C27.21,13.35 26.58,12.91 25.66,12.91 C24.74,12.91 24.1,13.37 23.76,14.29 C23.59,14.78 23.49,15.41 23.49,16.17 C23.49,16.78 23.59,17.3 23.76,17.72 C24.11,18.55 24.75,18.96 25.66,18.96 Z M22.21,11.98 L23.51,11.98 L23.51,13.03 C23.77,12.67 24.06,12.39 24.38,12.19 C24.83,11.9 25.36,11.75 25.97,11.75 C26.86,11.75 27.63,12.09 28.26,12.78 C28.88,13.46 29.2,14.44 29.2,15.72 C29.2,17.44 28.75,18.67 27.85,19.41 C27.27,19.88 26.6,20.11 25.84,20.11 C25.25,20.11 24.75,19.98 24.33,19.72 C24.09,19.57 23.83,19.32 23.54,18.96 L23.54,23 L22.21,23 Z"/>
  </g>
</svg>
